<?xml version="1.0" encoding="UTF-8" standalone="no"?>
<!-- Created with Inkscape (http://www.inkscape.org/) -->

<svg
   xmlns:dc="http://purl.org/dc/elements/1.1/"
   xmlns:cc="http://creativecommons.org/ns#"
   xmlns:rdf="http://www.w3.org/1999/02/22-rdf-syntax-ns#"
   xmlns:svg="http://www.w3.org/2000/svg"
   xmlns="http://www.w3.org/2000/svg"
   xmlns:sodipodi="http://sodipodi.sourceforge.net/DTD/sodipodi-0.dtd"
   xmlns:inkscape="http://www.inkscape.org/namespaces/inkscape"
   version="1.1"
   id="svg17430"
   xml:space="preserve"
   width="666.66669"
   height="666.66669"
   viewBox="0 0 666.66669 666.66669"
   sodipodi:docname="sushi-publicdomainvectors.org.svg"
   inkscape:version="0.92.4 (5da689c313, 2019-01-14)"><metadata
     id="metadata17436"><rdf:RDF><cc:Work
         rdf:about=""><dc:format>image/svg+xml</dc:format><dc:type
           rdf:resource="http://purl.org/dc/dcmitype/StillImage" /><dc:title></dc:title></cc:Work></rdf:RDF></metadata><defs
     id="defs17434"><clipPath
       clipPathUnits="userSpaceOnUse"
       id="clipPath17446"><path
         d="M 0,500 H 500 V 0 H 0 Z"
         id="path17444"
         inkscape:connector-curvature="0" /></clipPath><clipPath
       clipPathUnits="userSpaceOnUse"
       id="clipPath17460"><path
         d="m 291.74,298.924 v -54.18 h -0.07 c -0.25,-2.269 -1.231,-4.44 -2.81,-6.45 v -0.01 c -1.23,-1.58 -2.83,-3.05 -4.75,-4.41 -1.09,-0.76 -2.28,-1.49 -3.57,-2.17 -1.68,-0.9 -3.53,-1.72 -5.52,-2.45 -4.66,-1.71 -10.081,-2.93 -15.95,-3.48 h -0.01 c -2.121,-0.21 -4.29,-0.32 -6.52,-0.339 -0.26,-0.011 -0.53,-0.011 -0.8,-0.011 -3.11,0 -6.13,0.18 -9.03,0.53 -2.47,0.29 -4.85,0.7 -7.12,1.21 v 0.01 c -2.29,0.511 -4.46,1.13 -6.49,1.86 -2.73,0.95 -5.21,2.08 -7.39,3.35 -5.73,3.33 -9.37,7.64 -9.9,12.36 h -0.07 v 54.18 z"
         id="path17458"
         inkscape:connector-curvature="0" /></clipPath><clipPath
       clipPathUnits="userSpaceOnUse"
       id="clipPath17480"><path
         d="m 213.82,298.924 h 77.92 v -73.5 h -77.92 z"
         id="path17478"
         inkscape:connector-curvature="0" /></clipPath><clipPath
       clipPathUnits="userSpaceOnUse"
       id="clipPath17510"><path
         d="m 186.74,298.924 v -54.18 h -0.07 c -0.25,-2.269 -1.23,-4.44 -2.81,-6.45 v -0.01 c -1.23,-1.58 -2.83,-3.05 -4.75,-4.41 -1.09,-0.76 -2.28,-1.49 -3.57,-2.17 -1.68,-0.9 -3.53,-1.72 -5.52,-2.45 -4.66,-1.71 -10.08,-2.93 -15.95,-3.48 h -0.01 c -2.12,-0.21 -4.29,-0.32 -6.52,-0.339 -0.26,-0.011 -0.53,-0.011 -0.8,-0.011 -3.11,0 -6.13,0.18 -9.03,0.53 -2.47,0.29 -4.85,0.7 -7.12,1.21 v 0.01 c -2.29,0.511 -4.46,1.13 -6.49,1.86 -2.73,0.95 -5.21,2.08 -7.39,3.35 -5.73,3.33 -9.37,7.64 -9.9,12.36 h -0.07 v 54.18 z"
         id="path17508"
         inkscape:connector-curvature="0" /></clipPath><clipPath
       clipPathUnits="userSpaceOnUse"
       id="clipPath17530"><path
         d="m 108.82,298.924 h 77.92 v -73.5 h -77.92 z"
         id="path17528"
         inkscape:connector-curvature="0" /></clipPath><clipPath
       clipPathUnits="userSpaceOnUse"
       id="clipPath17556"><path
         d="m 396.74,298.924 v -54.18 h -0.07 c -0.25,-2.269 -1.231,-4.44 -2.81,-6.45 v -0.01 c -1.23,-1.58 -2.83,-3.05 -4.75,-4.41 -1.09,-0.76 -2.28,-1.49 -3.57,-2.17 -1.68,-0.9 -3.53,-1.72 -5.52,-2.45 -4.66,-1.71 -10.081,-2.93 -15.95,-3.48 h -0.01 c -2.121,-0.21 -4.29,-0.32 -6.52,-0.339 -0.26,-0.011 -0.53,-0.011 -0.8,-0.011 -3.11,0 -6.13,0.18 -9.03,0.53 -2.47,0.29 -4.85,0.7 -7.12,1.21 v 0.01 c -2.29,0.511 -4.46,1.13 -6.49,1.86 -2.73,0.95 -5.21,2.08 -7.39,3.35 -5.731,3.33 -9.37,7.64 -9.9,12.36 h -0.07 v 54.18 z"
         id="path17554"
         inkscape:connector-curvature="0" /></clipPath><clipPath
       clipPathUnits="userSpaceOnUse"
       id="clipPath17576"><path
         d="m 318.82,298.924 h 77.92 v -73.5 h -77.92 z"
         id="path17574"
         inkscape:connector-curvature="0" /></clipPath></defs><sodipodi:namedview
     pagecolor="#ffffff"
     bordercolor="#666666"
     borderopacity="1"
     objecttolerance="10"
     gridtolerance="10"
     guidetolerance="10"
     inkscape:pageopacity="0"
     inkscape:pageshadow="2"
     inkscape:window-width="724"
     inkscape:window-height="480"
     id="namedview17432"
     showgrid="false"
     inkscape:zoom="0.35399999"
     inkscape:cx="333.33334"
     inkscape:cy="333.33334"
     inkscape:window-x="0"
     inkscape:window-y="0"
     inkscape:window-maximized="0"
     inkscape:current-layer="g17438" /><g
     id="g17438"
     inkscape:groupmode="layer"
     inkscape:label="sushi-publicdomainvectors.org"
     transform="matrix(1.3333333,0,0,-1.3333333,0,666.66667)"><g
       id="g17440"><g
         id="g17442"
         clip-path="url(#clipPath17446)"><path
           d="m 451.74,238.131 c 0,-25.568 -90.322,-46.293 -201.74,-46.293 -111.418,0 -201.74,20.725 -201.74,46.293 0,25.567 90.322,46.293 201.74,46.293 111.418,0 201.74,-20.726 201.74,-46.293"
           style="fill:#000000;fill-opacity:1;fill-rule:nonzero;stroke:none"
           id="path17448"
           inkscape:connector-curvature="0" /><path
           d="m 451.74,243.631 c 0,-25.568 -90.322,-46.293 -201.74,-46.293 -111.418,0 -201.74,20.725 -201.74,46.293 0,25.567 90.322,46.293 201.74,46.293 111.418,0 201.74,-20.726 201.74,-46.293"
           style="fill:#1a1a1a;fill-opacity:1;fill-rule:nonzero;stroke:none"
           id="path17450"
           inkscape:connector-curvature="0" /><path
           d="m 305.029,235.607 c 0,-8.937 -23.858,-16.183 -53.289,-16.183 -29.431,0 -53.289,7.246 -53.289,16.183 0,8.938 23.858,16.183 53.289,16.183 29.431,0 53.289,-7.245 53.289,-16.183"
           style="fill:#000000;fill-opacity:1;fill-rule:nonzero;stroke:none"
           id="path17452"
           inkscape:connector-curvature="0" /><g
           id="g17454"><g
             id="g17456"
             clip-path="url(#clipPath17460)"><path
               d="m 291.74,298.924 v -54.18 h -0.07 c -0.25,-2.269 -1.231,-4.44 -2.81,-6.45 v -0.01 c -1.23,-1.58 -2.83,-3.05 -4.75,-4.41 -1.09,-0.76 -2.28,-1.49 -3.57,-2.17 -1.68,-0.9 -3.53,-1.72 -5.52,-2.45 -4.66,-1.71 -10.081,-2.93 -15.95,-3.48 h -0.01 c -2.121,-0.21 -4.29,-0.32 -6.52,-0.339 -0.26,-0.011 -0.53,-0.011 -0.8,-0.011 -3.11,0 -6.13,0.18 -9.03,0.53 -2.47,0.29 -4.85,0.7 -7.12,1.21 v 0.01 c -2.29,0.511 -4.46,1.13 -6.49,1.86 -2.73,0.95 -5.21,2.08 -7.39,3.35 -5.73,3.33 -9.37,7.64 -9.9,12.36 h -0.07 v 54.18 z"
               style="fill:#de5321;fill-opacity:1;fill-rule:nonzero;stroke:none"
               id="path17462"
               inkscape:connector-curvature="0" /><path
               d="m 229.1,229.034 c -2.73,0.95 -5.21,2.08 -7.39,3.35 -2.91,9.12 -5.02,18.5 -6.12,28.11 -1.45,12.76 -0.93,25.85 1.77,38.43 h 6.16 c -2.85,-12.51 -3.42,-25.6 -1.93,-38.43 1.26,-10.8 3.88,-21.3 7.51,-31.46"
               style="fill:#de7f5d;fill-opacity:1;fill-rule:nonzero;stroke:none"
               id="path17464"
               inkscape:connector-curvature="0" /><path
               d="m 245.89,296.284 c -12.75,-21.3 -13.85,-48.099 -3.18,-70.33 -2.47,0.29 -4.85,0.7 -7.12,1.21 -0.01,0 0,0.01 0,0.01 -9.57,23.05 -7.93,50.05 4.89,71.75 0.08,0.13 0.15,0.26 0.23,0.39 1.42,2.36 4.46,1.5 5.36,-0.39 0.37,-0.76 0.39,-1.69 -0.18,-2.64"
               style="fill:#de7f5d;fill-opacity:1;fill-rule:nonzero;stroke:none"
               id="path17466"
               inkscape:connector-curvature="0" /><path
               d="m 291.74,295.844 c -8.61,-17.96 -9.58,-38.91 -2.88,-57.55 v -0.01 c -1.23,-1.58 -2.83,-3.05 -4.75,-4.41 -8.25,20.87 -7.43,44.8 2.45,65.05 h 5.18 z"
               style="fill:#de7f5d;fill-opacity:1;fill-rule:nonzero;stroke:none"
               id="path17468"
               inkscape:connector-curvature="0" /><path
               d="m 263.9,290.414 c -13.48,-18.85 -15.24,-44.17 -4.84,-64.64 -2.121,-0.21 -4.29,-0.32 -6.52,-0.339 -10,21.739 -7.88,48.339 6.18,68.009 2.23,3.12 7.43,0.12 5.18,-3.03"
               style="fill:#de7f5d;fill-opacity:1;fill-rule:nonzero;stroke:none"
               id="path17470"
               inkscape:connector-curvature="0" /><path
               d="m 280.54,231.704 c -1.68,-0.9 -3.53,-1.72 -5.52,-2.45 -4.34,7.55 -8.31,15.4 -10.2,23.92 -2.52,11.36 -0.591,22.78 1.83,33.97 0.82,3.78 6.6,2.17 5.789,-1.6 -2.319,-10.71 -4.219,-21.64 -1.429,-32.47 1.969,-7.61 5.6,-14.59 9.53,-21.37"
               style="fill:#de7f5d;fill-opacity:1;fill-rule:nonzero;stroke:none"
               id="path17472"
               inkscape:connector-curvature="0" /><g
               id="g17474"><g
                 id="g17476" /><g
                 id="g17486"><g
                   clip-path="url(#clipPath17480)"
                   id="g17484"
                   style="opacity:0.5"><path
                     d="m 291.74,298.924 v -54.18 h -0.07 c -1.2,-10.769 -18.61,-19.32 -39.93,-19.32 -17.63,0 -32.59,5.85 -37.92,13.971 6.8,-2.731 15.35,-4.361 24.66,-4.361 21.31,0 38.73,8.55 39.93,19.32 h 0.069 v 44.57 z"
                     style="fill:#de5321;fill-opacity:1;fill-rule:nonzero;stroke:none"
                     id="path17482"
                     inkscape:connector-curvature="0" /></g></g></g></g></g><path
           d="m 291.74,298.924 c 0,-11.321 -17.909,-20.5 -40,-20.5 -22.092,0 -40,9.179 -40,20.5 0,11.322 17.908,20.5 40,20.5 22.091,0 40,-9.178 40,-20.5"
           style="fill:#ff4300;fill-opacity:1;fill-rule:nonzero;stroke:none"
           id="path17488"
           inkscape:connector-curvature="0" /><path
           d="m 251.74,281.424 c -22.133,0 -37,9.049 -37,17.5 0,8.451 14.867,17.5 37,17.5 22.132,0 37,-9.049 37,-17.5 0,-8.451 -14.868,-17.5 -37,-17.5"
           style="fill:#ffffff;fill-opacity:1;fill-rule:nonzero;stroke:none"
           id="path17490"
           inkscape:connector-curvature="0" /><path
           d="m 278.479,298.924 c 0,-2.16 -4.429,-7.49 -16.069,-9.61 -3.05,-0.56 -6.59,-0.89 -10.67,-0.89 -19.69,0 -26.74,7.78 -26.74,10.5 0,2.72 7.05,10.5 26.74,10.5 4.08,0 7.62,-0.33 10.67,-0.89 11.64,-2.12 16.069,-7.45 16.069,-9.61"
           style="fill:#ffffff;fill-opacity:1;fill-rule:nonzero;stroke:none"
           id="path17492"
           inkscape:connector-curvature="0" /><path
           d="m 273.979,298.924 c 0,-2.16 -4.429,-7.49 -16.069,-9.61 -11.64,2.12 -16.07,7.45 -16.07,9.61 0,2.16 4.43,7.49 16.07,9.61 11.64,-2.12 16.069,-7.45 16.069,-9.61"
           style="fill:#009245;fill-opacity:1;fill-rule:nonzero;stroke:none"
           id="path17494"
           inkscape:connector-curvature="0" /><path
           d="m 278.479,298.924 c 0,-2.16 -4.429,-7.49 -16.069,-9.61 -11.64,2.12 -16.07,7.45 -16.07,9.61 0,2.16 4.43,7.49 16.07,9.61 11.64,-2.12 16.069,-7.45 16.069,-9.61"
           style="fill:#39b54a;fill-opacity:1;fill-rule:nonzero;stroke:none"
           id="path17496"
           inkscape:connector-curvature="0" /><path
           d="m 251.74,288.424 c -19.685,0 -26.737,7.784 -26.737,10.5 0,2.716 7.052,10.5 26.737,10.5 19.685,0 26.737,-7.784 26.737,-10.5 0,-2.716 -7.052,-10.5 -26.737,-10.5 z"
           style="fill:none;stroke:#000000;stroke-width:2;stroke-linecap:butt;stroke-linejoin:miter;stroke-miterlimit:10;stroke-dasharray:none;stroke-opacity:1"
           id="path17498"
           inkscape:connector-curvature="0" /><path
           d="m 200.029,235.607 c 0,-8.937 -23.858,-16.183 -53.289,-16.183 -29.431,0 -53.289,7.246 -53.289,16.183 0,8.938 23.858,16.183 53.289,16.183 29.431,0 53.289,-7.245 53.289,-16.183"
           style="fill:#000000;fill-opacity:1;fill-rule:nonzero;stroke:none"
           id="path17500"
           inkscape:connector-curvature="0" /><path
           d="m 410.029,235.607 c 0,-8.937 -23.858,-16.183 -53.289,-16.183 -29.431,0 -53.29,7.246 -53.29,16.183 0,8.938 23.859,16.183 53.29,16.183 29.431,0 53.289,-7.245 53.289,-16.183"
           style="fill:#000000;fill-opacity:1;fill-rule:nonzero;stroke:none"
           id="path17502"
           inkscape:connector-curvature="0" /><g
           id="g17504"><g
             id="g17506"
             clip-path="url(#clipPath17510)"><path
               d="m 186.74,298.924 v -54.18 h -0.07 c -0.25,-2.269 -1.23,-4.44 -2.81,-6.45 v -0.01 c -1.23,-1.58 -2.83,-3.05 -4.75,-4.41 -1.09,-0.76 -2.28,-1.49 -3.57,-2.17 -1.68,-0.9 -3.53,-1.72 -5.52,-2.45 -4.66,-1.71 -10.08,-2.93 -15.95,-3.48 h -0.01 c -2.12,-0.21 -4.29,-0.32 -6.52,-0.339 -0.26,-0.011 -0.53,-0.011 -0.8,-0.011 -3.11,0 -6.13,0.18 -9.03,0.53 -2.47,0.29 -4.85,0.7 -7.12,1.21 v 0.01 c -2.29,0.511 -4.46,1.13 -6.49,1.86 -2.73,0.95 -5.21,2.08 -7.39,3.35 -5.73,3.33 -9.37,7.64 -9.9,12.36 h -0.07 v 54.18 z"
               style="fill:#de5321;fill-opacity:1;fill-rule:nonzero;stroke:none"
               id="path17512"
               inkscape:connector-curvature="0" /><path
               d="m 124.1,229.034 c -2.73,0.95 -5.21,2.08 -7.39,3.35 -2.91,9.12 -5.02,18.5 -6.12,28.11 -1.45,12.76 -0.93,25.85 1.77,38.43 h 6.16 c -2.85,-12.51 -3.42,-25.6 -1.93,-38.43 1.26,-10.8 3.88,-21.3 7.51,-31.46"
               style="fill:#de7f5d;fill-opacity:1;fill-rule:nonzero;stroke:none"
               id="path17514"
               inkscape:connector-curvature="0" /><path
               d="m 140.89,296.284 c -12.75,-21.3 -13.85,-48.099 -3.18,-70.33 -2.47,0.29 -4.85,0.7 -7.12,1.21 -0.01,0 0,0.01 0,0.01 -9.57,23.05 -7.93,50.05 4.89,71.75 0.08,0.13 0.15,0.26 0.23,0.39 1.42,2.36 4.46,1.5 5.36,-0.39 0.37,-0.76 0.39,-1.69 -0.18,-2.64"
               style="fill:#de7f5d;fill-opacity:1;fill-rule:nonzero;stroke:none"
               id="path17516"
               inkscape:connector-curvature="0" /><path
               d="m 186.74,295.844 c -8.61,-17.96 -9.58,-38.91 -2.88,-57.55 v -0.01 c -1.23,-1.58 -2.83,-3.05 -4.75,-4.41 -8.25,20.87 -7.43,44.8 2.45,65.05 h 5.18 z"
               style="fill:#de7f5d;fill-opacity:1;fill-rule:nonzero;stroke:none"
               id="path17518"
               inkscape:connector-curvature="0" /><path
               d="m 158.9,290.414 c -13.48,-18.85 -15.24,-44.17 -4.84,-64.64 -2.12,-0.21 -4.29,-0.32 -6.52,-0.339 -10,21.739 -7.88,48.339 6.18,68.009 2.23,3.12 7.43,0.12 5.18,-3.03"
               style="fill:#de7f5d;fill-opacity:1;fill-rule:nonzero;stroke:none"
               id="path17520"
               inkscape:connector-curvature="0" /><path
               d="m 175.54,231.704 c -1.68,-0.9 -3.53,-1.72 -5.52,-2.45 -4.34,7.55 -8.31,15.4 -10.2,23.92 -2.52,11.36 -0.59,22.78 1.83,33.97 0.82,3.78 6.6,2.17 5.79,-1.6 -2.32,-10.71 -4.22,-21.64 -1.43,-32.47 1.97,-7.61 5.6,-14.59 9.53,-21.37"
               style="fill:#de7f5d;fill-opacity:1;fill-rule:nonzero;stroke:none"
               id="path17522"
               inkscape:connector-curvature="0" /><g
               id="g17524"><g
                 id="g17526" /><g
                 id="g17536"><g
                   clip-path="url(#clipPath17530)"
                   id="g17534"
                   style="opacity:0.5"><path
                     d="m 186.74,298.924 v -54.18 h -0.07 c -1.2,-10.769 -18.61,-19.32 -39.93,-19.32 -17.63,0 -32.59,5.85 -37.92,13.971 6.8,-2.731 15.35,-4.361 24.66,-4.361 21.31,0 38.73,8.55 39.93,19.32 h 0.07 v 44.57 z"
                     style="fill:#de5321;fill-opacity:1;fill-rule:nonzero;stroke:none"
                     id="path17532"
                     inkscape:connector-curvature="0" /></g></g></g></g></g><path
           d="m 186.74,298.924 c 0,-11.321 -17.909,-20.5 -40,-20.5 -22.092,0 -40,9.179 -40,20.5 0,11.322 17.908,20.5 40,20.5 22.091,0 40,-9.178 40,-20.5"
           style="fill:#ff4300;fill-opacity:1;fill-rule:nonzero;stroke:none"
           id="path17538"
           inkscape:connector-curvature="0" /><path
           d="m 146.74,281.424 c -22.133,0 -37,9.049 -37,17.5 0,8.451 14.867,17.5 37,17.5 22.132,0 37,-9.049 37,-17.5 0,-8.451 -14.868,-17.5 -37,-17.5"
           style="fill:#ffffff;fill-opacity:1;fill-rule:nonzero;stroke:none"
           id="path17540"
           inkscape:connector-curvature="0" /><path
           d="m 173.48,298.924 c 0,-2.16 -4.43,-7.49 -16.07,-9.61 -3.05,-0.56 -6.59,-0.89 -10.67,-0.89 -19.69,0 -26.74,7.78 -26.74,10.5 0,2.72 7.05,10.5 26.74,10.5 4.08,0 7.62,-0.33 10.67,-0.89 11.64,-2.12 16.07,-7.45 16.07,-9.61"
           style="fill:#ffffff;fill-opacity:1;fill-rule:nonzero;stroke:none"
           id="path17542"
           inkscape:connector-curvature="0" /><path
           d="m 168.98,298.924 c 0,-2.16 -4.43,-7.49 -16.07,-9.61 -11.64,2.12 -16.07,7.45 -16.07,9.61 0,2.16 4.43,7.49 16.07,9.61 11.64,-2.12 16.07,-7.45 16.07,-9.61"
           style="fill:#f7931e;fill-opacity:1;fill-rule:nonzero;stroke:none"
           id="path17544"
           inkscape:connector-curvature="0" /><path
           d="m 173.48,298.924 c 0,-2.16 -4.43,-7.49 -16.07,-9.61 -11.64,2.12 -16.07,7.45 -16.07,9.61 0,2.16 4.43,7.49 16.07,9.61 11.64,-2.12 16.07,-7.45 16.07,-9.61"
           style="fill:#fbb03b;fill-opacity:1;fill-rule:nonzero;stroke:none"
           id="path17546"
           inkscape:connector-curvature="0" /><path
           d="m 146.74,288.424 c -19.685,0 -26.737,7.784 -26.737,10.5 0,2.716 7.052,10.5 26.737,10.5 19.685,0 26.736,-7.784 26.736,-10.5 0,-2.716 -7.051,-10.5 -26.736,-10.5 z"
           style="fill:none;stroke:#000000;stroke-width:2;stroke-linecap:butt;stroke-linejoin:miter;stroke-miterlimit:10;stroke-dasharray:none;stroke-opacity:1"
           id="path17548"
           inkscape:connector-curvature="0" /><g
           id="g17550"><g
             id="g17552"
             clip-path="url(#clipPath17556)"><path
               d="m 396.74,298.924 v -54.18 h -0.07 c -0.25,-2.269 -1.231,-4.44 -2.81,-6.45 v -0.01 c -1.23,-1.58 -2.83,-3.05 -4.75,-4.41 -1.09,-0.76 -2.28,-1.49 -3.57,-2.17 -1.68,-0.9 -3.53,-1.72 -5.52,-2.45 -4.66,-1.71 -10.081,-2.93 -15.95,-3.48 h -0.01 c -2.121,-0.21 -4.29,-0.32 -6.52,-0.339 -0.26,-0.011 -0.53,-0.011 -0.8,-0.011 -3.11,0 -6.13,0.18 -9.03,0.53 -2.47,0.29 -4.85,0.7 -7.12,1.21 v 0.01 c -2.29,0.511 -4.46,1.13 -6.49,1.86 -2.73,0.95 -5.21,2.08 -7.39,3.35 -5.731,3.33 -9.37,7.64 -9.9,12.36 h -0.07 v 54.18 z"
               style="fill:#de5321;fill-opacity:1;fill-rule:nonzero;stroke:none"
               id="path17558"
               inkscape:connector-curvature="0" /><path
               d="m 334.1,229.034 c -2.73,0.95 -5.21,2.08 -7.39,3.35 -2.91,9.12 -5.021,18.5 -6.12,28.11 -1.45,12.76 -0.93,25.85 1.77,38.43 h 6.16 c -2.85,-12.51 -3.42,-25.6 -1.93,-38.43 1.26,-10.8 3.88,-21.3 7.51,-31.46"
               style="fill:#de7f5d;fill-opacity:1;fill-rule:nonzero;stroke:none"
               id="path17560"
               inkscape:connector-curvature="0" /><path
               d="m 350.89,296.284 c -12.75,-21.3 -13.85,-48.099 -3.18,-70.33 -2.47,0.29 -4.85,0.7 -7.12,1.21 -0.01,0 0,0.01 0,0.01 -9.57,23.05 -7.93,50.05 4.889,71.75 0.081,0.13 0.151,0.26 0.231,0.39 1.42,2.36 4.46,1.5 5.36,-0.39 0.369,-0.76 0.39,-1.69 -0.18,-2.64"
               style="fill:#de7f5d;fill-opacity:1;fill-rule:nonzero;stroke:none"
               id="path17562"
               inkscape:connector-curvature="0" /><path
               d="m 396.74,295.844 c -8.61,-17.96 -9.58,-38.91 -2.88,-57.55 v -0.01 c -1.23,-1.58 -2.83,-3.05 -4.75,-4.41 -8.25,20.87 -7.43,44.8 2.45,65.05 h 5.18 z"
               style="fill:#de7f5d;fill-opacity:1;fill-rule:nonzero;stroke:none"
               id="path17564"
               inkscape:connector-curvature="0" /><path
               d="m 368.9,290.414 c -13.48,-18.85 -15.24,-44.17 -4.84,-64.64 -2.121,-0.21 -4.29,-0.32 -6.52,-0.339 -10,21.739 -7.88,48.339 6.18,68.009 2.23,3.12 7.43,0.12 5.18,-3.03"
               style="fill:#de7f5d;fill-opacity:1;fill-rule:nonzero;stroke:none"
               id="path17566"
               inkscape:connector-curvature="0" /><path
               d="m 385.54,231.704 c -1.68,-0.9 -3.53,-1.72 -5.52,-2.45 -4.34,7.55 -8.31,15.4 -10.2,23.92 -2.52,11.36 -0.591,22.78 1.83,33.97 0.82,3.78 6.6,2.17 5.789,-1.6 -2.319,-10.71 -4.219,-21.64 -1.429,-32.47 1.969,-7.61 5.6,-14.59 9.53,-21.37"
               style="fill:#de7f5d;fill-opacity:1;fill-rule:nonzero;stroke:none"
               id="path17568"
               inkscape:connector-curvature="0" /><g
               id="g17570"><g
                 id="g17572" /><g
                 id="g17582"><g
                   clip-path="url(#clipPath17576)"
                   id="g17580"
                   style="opacity:0.5"><path
                     d="m 396.74,298.924 v -54.18 h -0.07 c -1.2,-10.769 -18.61,-19.32 -39.93,-19.32 -17.63,0 -32.59,5.85 -37.92,13.971 6.8,-2.731 15.35,-4.361 24.659,-4.361 21.311,0 38.731,8.55 39.931,19.32 h 0.069 v 44.57 z"
                     style="fill:#de5321;fill-opacity:1;fill-rule:nonzero;stroke:none"
                     id="path17578"
                     inkscape:connector-curvature="0" /></g></g></g></g></g><path
           d="m 396.74,298.924 c 0,-11.321 -17.909,-20.5 -40,-20.5 -22.092,0 -40,9.179 -40,20.5 0,11.322 17.908,20.5 40,20.5 22.091,0 40,-9.178 40,-20.5"
           style="fill:#ff4300;fill-opacity:1;fill-rule:nonzero;stroke:none"
           id="path17584"
           inkscape:connector-curvature="0" /><path
           d="m 356.74,281.424 c -22.133,0 -37,9.049 -37,17.5 0,8.451 14.867,17.5 37,17.5 22.132,0 37,-9.049 37,-17.5 0,-8.451 -14.868,-17.5 -37,-17.5"
           style="fill:#ffffff;fill-opacity:1;fill-rule:nonzero;stroke:none"
           id="path17586"
           inkscape:connector-curvature="0" /><path
           d="m 383.479,298.924 c 0,-2.16 -4.429,-7.49 -16.069,-9.61 -3.05,-0.56 -6.59,-0.89 -10.67,-0.89 -19.69,0 -26.74,7.78 -26.74,10.5 0,2.72 7.05,10.5 26.74,10.5 4.08,0 7.62,-0.33 10.67,-0.89 11.64,-2.12 16.069,-7.45 16.069,-9.61"
           style="fill:#ffffff;fill-opacity:1;fill-rule:nonzero;stroke:none"
           id="path17588"
           inkscape:connector-curvature="0" /><path
           d="m 378.979,298.924 c 0,-2.16 -4.429,-7.49 -16.069,-9.61 -11.64,2.12 -16.07,7.45 -16.07,9.61 0,2.16 4.43,7.49 16.07,9.61 11.64,-2.12 16.069,-7.45 16.069,-9.61"
           style="fill:#c1272d;fill-opacity:1;fill-rule:nonzero;stroke:none"
           id="path17590"
           inkscape:connector-curvature="0" /><path
           d="m 383.479,298.924 c 0,-2.16 -4.429,-7.49 -16.069,-9.61 -11.64,2.12 -16.07,7.45 -16.07,9.61 0,2.16 4.43,7.49 16.07,9.61 11.64,-2.12 16.069,-7.45 16.069,-9.61"
           style="fill:#ed1c24;fill-opacity:1;fill-rule:nonzero;stroke:none"
           id="path17592"
           inkscape:connector-curvature="0" /><path
           d="m 356.74,288.424 c -19.685,0 -26.736,7.784 -26.736,10.5 0,2.716 7.051,10.5 26.736,10.5 19.685,0 26.737,-7.784 26.737,-10.5 0,-2.716 -7.052,-10.5 -26.737,-10.5 z"
           style="fill:none;stroke:#000000;stroke-width:2;stroke-linecap:butt;stroke-linejoin:miter;stroke-miterlimit:10;stroke-dasharray:none;stroke-opacity:1"
           id="path17594"
           inkscape:connector-curvature="0" /><path
           d="m 356.74,340.278 h -210 v 88.496 h 210 z"
           style="fill:#ed1c24;fill-opacity:1;fill-rule:nonzero;stroke:none"
           id="path17596"
           inkscape:connector-curvature="0" /><path
           d="m 200.05,362.272 -1.181,-5.57 v -2.026 l 0.674,-1.096 -0.337,-2.871 -6.33,0.338 -0.844,-0.169 h -24.39 l -0.591,1.773 -0.591,5.317 v 18.061 l 0.338,0.506 3.544,0.169 h 5.486 v -3.967 l 0.591,-0.844 -0.506,-0.422 v -7.679 l -0.253,-0.676 0.422,-3.629 h 14.769 l -0.929,15.022 -23.715,11.31 v 26.416 h 13.335 l 0.422,0.338 1.434,-0.169 0.338,-0.338 2.701,0.507 0.422,-0.507 2.616,0.675 1.35,-0.084 0.254,-0.422 6.414,0.506 0.422,-0.506 1.94,-0.591 0.338,-3.714 -0.506,-0.253 1.013,-1.434 v -2.364 l -0.338,-0.59 0.591,-1.097 v -14.517 l -8.524,0.76 -0.76,2.7 v 11.31 l -1.519,0.169 -3.966,-0.253 H 174.9 v -3.292 l 0.506,-0.844 -0.337,-0.929 v -2.025 l 0.337,-0.338 -0.253,-0.759 v -1.772 l 1.097,-0.844 19.496,-10.128 v -0.675 l 3.797,-1.688 v -0.591 l -0.421,-0.253 0.506,-12.068 -0.506,-2.448 0.59,-0.337 0.085,-0.929 z"
           style="fill:#ffffff;fill-opacity:1;fill-rule:nonzero;stroke:none"
           id="path17598"
           inkscape:connector-curvature="0" /><path
           d="m 237.268,381.599 -0.507,-0.422 v -9.959 l 0.254,-4.895 -0.422,-5.739 0.422,-0.337 -0.676,-0.338 0.676,-10.296 -1.182,0.929 h -15.276 l -0.253,0.252 h -12.659 l -2.279,-0.421 v 49.877 l 0.506,0.591 -0.76,12.154 9.959,-0.76 v -29.37 l -0.759,-0.675 1.181,-0.76 -0.422,-1.181 v -20.931 h 12.997 l -0.253,5.824 v 47.346 h 5.486 l 2.616,-0.253 v -26.332 l 1.098,-1.773 -0.676,-0.59 z"
           style="fill:#ffffff;fill-opacity:1;fill-rule:nonzero;stroke:none"
           id="path17600"
           inkscape:connector-curvature="0" /><path
           d="m 276.932,362.272 -1.182,-5.57 v -2.026 l 0.676,-1.096 -0.338,-2.871 -6.33,0.338 -0.844,-0.169 h -24.391 l -0.59,1.773 -0.591,5.317 v 18.061 l 0.338,0.506 3.545,0.169 h 5.485 v -3.967 l 0.591,-0.844 -0.506,-0.422 v -7.679 l -0.254,-0.676 0.422,-3.629 h 14.769 l -0.927,15.022 -23.716,11.31 v 26.416 h 13.335 l 0.422,0.338 1.434,-0.169 0.338,-0.338 2.7,0.507 0.422,-0.507 2.616,0.675 1.351,-0.084 0.253,-0.422 6.414,0.506 0.423,-0.506 1.94,-0.591 0.338,-3.714 -0.507,-0.253 1.013,-1.434 v -2.364 l -0.337,-0.59 0.591,-1.097 v -14.517 l -8.524,0.76 -0.76,2.7 v 11.31 l -1.519,0.169 -3.967,-0.253 h -9.284 v -3.292 l 0.507,-0.844 -0.338,-0.929 v -2.025 l 0.338,-0.338 -0.253,-0.759 v -1.772 l 1.097,-0.844 19.496,-10.128 v -0.675 l 3.798,-1.688 v -0.591 l -0.422,-0.253 0.506,-12.068 -0.506,-2.448 0.591,-0.337 0.084,-0.929 z"
           style="fill:#ffffff;fill-opacity:1;fill-rule:nonzero;stroke:none"
           id="path17602"
           inkscape:connector-curvature="0" /><path
           d="m 305.794,350.457 0.928,1.265 0.422,1.858 -1.688,24.305 h -10.128 l -1.013,-0.76 1.098,-27.259 -1.519,0.591 h -9.031 l -2.363,42.198 v 21.858 h 10.55 l 1.603,-25.487 H 306.3 l 0.76,1.097 v 2.11 l -0.929,5.57 v 13.841 l -0.337,3.207 3.46,-0.169 6.836,0.591 0.507,-1.182 -0.169,-2.109 0.927,-9.706 1.013,-22.027 v -16.795 l -0.422,-10.296 0.591,-1.351 0.169,-1.35 z"
           style="fill:#ffffff;fill-opacity:1;fill-rule:nonzero;stroke:none"
           id="path17604"
           inkscape:connector-curvature="0" /><path
           d="m 337.272,365.986 -0.675,-2.448 v -10.296 l -0.506,0.084 v -3.122 l 0.337,-0.253 H 325.71 l -1.098,4.05 0.507,1.182 v 5.485 l -0.507,14.686 0.338,0.675 v 7.679 l -0.591,0.845 0.507,0.844 -0.254,3.544 0.254,5.57 0.253,0.338 -0.507,0.338 0.169,1.772 0.507,0.928 -0.676,0.844 0.507,1.603 v 9.369 l 0.591,3.123 h 7.005 l 2.7,0.253 1.182,-10.127 v -27.514 l 0.253,-5.992 -0.168,-3.123 z"
           style="fill:#ffffff;fill-opacity:1;fill-rule:nonzero;stroke:none"
           id="path17606"
           inkscape:connector-curvature="0" /><path
           d="M 417.6,71.628 81.028,157.93 c -1.144,0.294 -1.838,1.455 -1.553,2.6 0.284,1.147 1.44,1.85 2.588,1.574 l 337.901,-80.94 c 2.653,-0.636 4.28,-3.311 3.624,-5.96 -0.656,-2.648 -3.346,-4.254 -5.988,-3.576"
           style="fill:#f7931e;fill-opacity:1;fill-rule:nonzero;stroke:none"
           id="path17608"
           inkscape:connector-curvature="0" /><path
           d="m 423.587,75.209 c -0.654,-2.642 -3.318,-4.237 -5.949,-3.585 l -0.042,0.01 -226.964,58.188 227.989,-54.23 c 1.929,-0.468 3.871,0.291 5.007,1.763 0.143,-0.683 0.14,-1.419 -0.041,-2.146"
           style="fill:#d6801a;fill-opacity:1;fill-rule:nonzero;stroke:none"
           id="path17610"
           inkscape:connector-curvature="0" /><path
           d="M 420.297,162.7 79.866,75.409 c -0.501,-0.129 -0.804,-0.637 -0.68,-1.138 l 0.289,-1.165 0.288,-1.165 c 0.125,-0.502 0.631,-0.808 1.133,-0.688 l 341.776,81.868 c 1.161,0.278 1.874,1.449 1.586,2.609 l -1.34,5.405 c -0.287,1.159 -1.465,1.862 -2.621,1.565"
           style="fill:#f7931e;fill-opacity:1;fill-rule:nonzero;stroke:none"
           id="path17612"
           inkscape:connector-curvature="0" /><path
           d="m 423.587,158.428 c -0.654,2.641 -3.318,4.237 -5.949,3.585 l -0.042,-0.011 -226.964,-58.188 227.989,54.231 c 1.929,0.468 3.871,-0.291 5.007,-1.764 0.143,0.684 0.14,1.42 -0.041,2.147"
           style="fill:#d6801a;fill-opacity:1;fill-rule:nonzero;stroke:none"
           id="path17614"
           inkscape:connector-curvature="0" /></g></g></g></svg>