<svg id="Layer_1" data-name="Layer 1" xmlns="http://www.w3.org/2000/svg" viewBox="0 0 472 467.16"><defs><style>.cls-1{fill:#f3c35e;}.cls-2{fill:#69c6b5;}.cls-3{fill:#e46589;}.cls-4{fill:#273a4d;}.cls-5{fill:#ef4737;}</style></defs><rect class="cls-1" width="472" height="113.83" rx="56.92"/><rect class="cls-2" x="179.09" y="230.07" width="113.83" height="237.09" rx="56.92"/><rect class="cls-3" x="179.09" y="113.83" width="113.73" height="169.71"/><circle class="cls-4" cx="236" cy="286.99" r="56.92"/><path class="cls-3" d="M361.75,326.84h56.92v56.92a56.9,56.9,0,0,0-56.92-56.87Z" transform="translate(-239.58 -213.01)"/><path class="cls-5" d="M408.49,213A123.92,123.92,0,0,0,285.08,325.69,56.92,56.92,0,0,1,296.5,213Z" transform="translate(-239.58 -213.01)"/><path class="cls-5" d="M532,326.42a57,57,0,0,1-7,.42H296.5a56.57,56.57,0,0,1-11.42-1.15,123.91,123.91,0,0,1,246.87.73Z" transform="translate(-239.58 -213.01)"/></svg>